# xmcd
#
# Track frame offsets:
#	150
#	17625
#	37444
#	55912
#	75328
#	90481
#
# Disc length: 1461 seconds
#
# Revision: 0
# Processed by: cddbd v1.5.2PL0 Copyright (c) Steve Scherf et al.
# Submitted via: audiograbber 1.82.02
#
DISCID=4005b306
DTITLE=Steven Casper  - Trouble
DYEAR=2013
DGENRE=
TTITLE0=Cat on a hot tin roof
TTITLE1=Soul Deep
TTITLE2=Trouble
TTITLE3=How can I miss you (If you´re not gone)
TTITLE4=Hey Marie
TTITLE5=How can I miss you (If you´re not gone) (Front Porch Version)
EXTD=
EXTT0=
EXTT1=
EXTT2=
EXTT3=
EXTT4=
EXTT5=
PLAYORDER=
